<svg version="1.1" id="Layer_1" xmlns="http://www.w3.org/2000/svg" xmlns:xlink="http://www.w3.org/1999/xlink" x="0px" y="0px"
	 viewBox="0 0 188.3 62.5" style="enable-background:new 0 0 188.3 62.5;" xml:space="preserve">
<style type="text/css">
	.st0{fill:#FFFFFF;}
</style>
<g>
	<path class="st0" d="M128.4,29.8l2.4,2.5c6.4-4.9,14.3-7.3,22.6-7.3c0.1-8.3,2.6-16.1,7.6-22.5L158.6,0L128.4,29.8z"/>
	<path class="st0" d="M162.7,26c7.1,1.5,14.1,4.6,20.5,9.3l5.1-5.1L167.6,9.1C164.2,13.9,162.6,19.8,162.7,26"/>
	<path class="st0" d="M137.4,38.9L158.1,60l5.1-5.1c-4.6-6.5-7.7-13.6-9-20.7C148.1,34.1,142.2,35.6,137.4,38.9"/>
	<path class="st0" d="M170,48.3l6.5-6.4c-3.9-2.7-8.1-4.7-12.3-6C165.4,40.1,167.3,44.3,170,48.3"/>
	<path class="st0" d="M4.8,40.3c-1.4,0-2.4-0.5-3.2-1.4c-0.7-0.8-1-1.8-1-3c0-1.3,0.4-2.4,1.1-3.4c0.7-1,1.8-1.7,3.2-2.1
		c1.5,0.5,2.6,1.3,3.3,2.3c0.7,0.9,1,2,1,3.2c0,1.4-0.4,2.5-1.3,3.3C7.2,40,6.2,40.3,5,40.3H4.8z M3.2,28.2c-0.4,0-0.8-0.1-1-0.4
		c-0.3-0.3-0.4-0.6-0.4-1.1c0-0.9,0.5-1.4,1.4-1.4c0.4,0,0.8,0.1,1,0.4c0.2,0.2,0.4,0.6,0.4,1C4.5,27.7,4.1,28.2,3.2,28.2 M4.8,37.7
		h0.3c1,0,1.5-0.6,1.5-1.8c0-1.4-0.6-2.4-1.7-3c-1.1,0.6-1.6,1.6-1.6,2.9C3.3,37.1,3.8,37.7,4.8,37.7 M6.4,28.2
		c-0.4,0-0.8-0.1-1-0.4c-0.3-0.3-0.4-0.6-0.4-1c0-0.4,0.1-0.8,0.4-1c0.3-0.3,0.6-0.4,1-0.4c0.4,0,0.8,0.1,1,0.4
		c0.2,0.2,0.4,0.6,0.4,1C7.8,27.7,7.4,28.2,6.4,28.2"/>
	<path class="st0" d="M10.8,40.3l1.4-2.6h3.4c0.7,0,1.1-0.4,1.1-1.3c0-1.6-0.8-2.8-2.3-3.6l1.3-2.3c2.4,1.4,3.6,3.4,3.6,6
		c0,2.5-1.1,3.8-3.3,3.8H10.8z"/>
	<path class="st0" d="M26.7,40.3c-1.3,0-2.3-0.4-3-1.2c-0.6-0.7-0.9-1.6-0.9-2.8v-8.4l2.7-1.4v9.7c0,0.6,0.1,1,0.3,1.2
		c0.2,0.2,0.6,0.4,1.2,0.4h1.9v2.6H26.7z"/>
	<path class="st0" d="M28.7,45.1c-0.4,0-0.8-0.1-1-0.4c-0.3-0.3-0.4-0.6-0.4-1.1c0-0.9,0.5-1.4,1.4-1.4c0.4,0,0.8,0.1,1,0.4
		c0.2,0.2,0.4,0.6,0.4,1C30.1,44.6,29.7,45.1,28.7,45.1 M27.6,40.3v-2.6h1.9c0.5,0,0.9-0.1,1.2-0.4c0.2-0.2,0.3-0.6,0.3-1.2v-4
		l2.7-1.4v5.5c0,1.3-0.4,2.3-1.2,3c-0.7,0.6-1.6,1-2.7,1H27.6z M32,45.1c-0.4,0-0.8-0.1-1-0.4c-0.3-0.3-0.4-0.6-0.4-1.1
		c0-0.9,0.5-1.4,1.4-1.4c0.4,0,0.8,0.1,1,0.4s0.4,0.6,0.4,1C33.4,44.6,33,45.1,32,45.1"/>
	<path class="st0" d="M44.4,37.7h1.9v2.6h-2.2c-0.5,0-0.9-0.1-1.4-0.2c-0.2,1.4-0.7,2.5-1.7,3.3c-0.8,0.7-1.8,1.1-3,1.1
		c-0.9,0-1.8-0.2-2.6-0.7v-2.4c0.7,0.4,1.5,0.6,2.2,0.6c0.8,0,1.4-0.3,1.8-0.8c0.4-0.5,0.7-1.2,0.7-2.1v-6.9l1.8-0.9l0.9-0.5v0l0,0
		v5.4c0,0.6,0.1,1,0.3,1.2C43.4,37.6,43.8,37.7,44.4,37.7"/>
	<path class="st0" d="M45,40.3v-2.6h1.4c0.7,0,1.1-0.1,1.4-0.4c0.3-0.3,0.4-0.8,0.4-1.5v-7.9l2.7-1.4v9.4c0,1.4-0.4,2.5-1.3,3.3
		c-0.8,0.8-1.8,1.1-3.1,1.1H45z"/>
	<polygon class="st0" points="54.7,40.3 54.7,27.9 57.4,26.5 57.4,40.3 	"/>
	<path class="st0" d="M74.9,37.7h1.9v2.6h-2.2c-1.3,0-2.4-0.4-3.1-1.3c-0.6,0.5-1.4,0.7-2.3,0.7c-1.3,0-2.4-0.5-3.2-1.5
		c-0.6-0.8-1-1.8-1-2.9c0-1.4,0.5-2.6,1.4-3.5c0.8-0.7,1.7-1.1,2.7-1.1c0.5,0,1,0.1,1.5,0.3v-0.6l2.7-1.4v7.1c0,0.6,0.1,1,0.4,1.2
		C73.9,37.6,74.3,37.7,74.9,37.7 M67.9,28.2c-0.4,0-0.8-0.1-1-0.4c-0.3-0.3-0.4-0.6-0.4-1.1c0-0.9,0.5-1.4,1.4-1.4
		c0.4,0,0.8,0.1,1,0.4c0.2,0.2,0.4,0.6,0.4,1C69.3,27.7,68.9,28.2,67.9,28.2 M70.7,33.7c-0.4-0.3-0.8-0.5-1.3-0.5
		c-0.5,0-0.9,0.2-1.1,0.6c-0.3,0.4-0.4,0.9-0.4,1.5c0,0.6,0.1,1.1,0.4,1.5c0.3,0.4,0.7,0.6,1.2,0.6c0.5,0,1-0.2,1.3-0.6
		c0-0.1,0-0.3,0-0.5V33.7z M71.2,28.2c-0.4,0-0.8-0.1-1-0.4c-0.3-0.3-0.4-0.6-0.4-1.1c0-0.9,0.5-1.4,1.4-1.4c0.4,0,0.8,0.1,1,0.4
		c0.2,0.2,0.4,0.6,0.4,1C72.6,27.7,72.2,28.2,71.2,28.2"/>
	<path class="st0" d="M75.5,40.3v-2.6h3.4c-0.4-0.6-0.6-1.4-0.6-2.4c0-1.6,0.4-2.8,1.3-3.7c0.8-0.8,1.8-1.2,3-1.2
		c1.3,0,2.3,0.4,3,1.2c0.6,0.7,0.9,1.6,0.9,2.7v1.9c0,1.2-0.4,2.2-1.1,2.9c-0.7,0.7-1.7,1.1-2.9,1.1H75.5z M81,28.9
		c-0.4,0-0.8-0.1-1-0.4c-0.3-0.3-0.4-0.6-0.4-1.1c0-0.9,0.5-1.4,1.4-1.4c0.4,0,0.8,0.1,1,0.4c0.2,0.2,0.4,0.6,0.4,1
		C82.4,28.4,81.9,28.9,81,28.9 M83.8,34.4c0-0.9-0.4-1.4-1.2-1.4c-1.1,0-1.7,0.8-1.7,2.3c0,1.6,0.5,2.4,1.6,2.4
		c0.8,0,1.3-0.5,1.3-1.4V34.4z M84.3,28.9c-0.4,0-0.8-0.1-1-0.4c-0.3-0.3-0.4-0.6-0.4-1.1c0-0.9,0.5-1.4,1.4-1.4
		c0.4,0,0.8,0.1,1,0.4s0.4,0.6,0.4,1C85.7,28.4,85.2,28.9,84.3,28.9"/>
	<path class="st0" d="M95,39.7c-0.4,0.1-0.9,0.1-1.4,0.1c-1.3,0-2.4-0.5-3.2-1.5c-0.6-0.8-1-1.8-1-3c0-1.6,0.4-2.8,1.3-3.7
		c0.8-0.8,1.8-1.2,3-1.2c1.3,0,2.3,0.4,3,1.2c0.6,0.7,0.9,1.6,0.9,2.7V39c0,1.7-0.4,3-1.3,4c-0.8,0.9-2,1.4-3.4,1.4
		c-0.9,0-1.8-0.2-2.6-0.7v-2.3c0.8,0.4,1.5,0.7,2.3,0.7C94.1,42,94.8,41.2,95,39.7 M95,34.4c0-0.9-0.4-1.4-1.2-1.4
		c-0.5,0-0.9,0.2-1.2,0.6c-0.3,0.4-0.4,1-0.4,1.7c0,1.5,0.5,2.3,1.6,2.3c0.6,0,1-0.1,1.2-0.4V34.4z"/>
	<path class="st0" d="M106.6,39c0,1.7-0.5,3-1.4,4c-0.8,1-2,1.4-3.3,1.4c-0.9,0-1.8-0.2-2.6-0.7v-2.4c0.7,0.4,1.5,0.6,2.2,0.6
		c0.8,0,1.4-0.3,1.8-0.8c0.4-0.5,0.7-1.2,0.7-2.1v-6.9l2.7-1.4V39z"/>
	<path class="st0" d="M109.7,25.3l0.7-1.2h0.6c-0.2-0.3-0.2-0.6-0.2-0.9c0-0.5,0.2-0.9,0.5-1.2c0.3-0.3,0.7-0.5,1.2-0.5
		c0.4,0,0.8,0.2,1.2,0.5v1.2c-0.3-0.3-0.7-0.5-1-0.5c-0.5,0-0.7,0.2-0.7,0.6c0,0.2,0.1,0.4,0.3,0.7h2.1l-0.7,1.2H109.7z M110.5,40.3
		V27.9l2.7-1.4v13.8H110.5z"/>
	<path class="st0" d="M3.3,50.3h1l3.3,9.3H6.8L6,57.4H1.7l-0.8,2.2H0L3.3,50.3z M3.8,51.2l-1.9,5.6h3.8L3.8,51.2z"/>
	<path class="st0" d="M9.6,53.7c0.7-0.6,1.3-0.9,2-0.9c0.7,0,1.2,0.2,1.5,0.6l-0.6,0.5c-0.3-0.3-0.7-0.4-1.1-0.4
		c-0.6,0-1.2,0.3-1.7,1v5.2H8.9V53h0.6L9.6,53.7z"/>
	<polygon class="st0" points="16.9,59.7 16.1,59.7 13.9,53 14.7,53 16.5,58.9 18.3,53 19.2,53 20.9,58.9 22.7,53 23.5,53 21.4,59.7 
		20.5,59.7 18.8,53.8 	"/>
	<path class="st0" d="M29.9,56.6h-4.8c0,0.8,0.3,1.5,0.9,2c0.5,0.4,1.2,0.7,1.9,0.7c0.7,0,1.2-0.2,1.7-0.5l0.3,0.5
		c-0.6,0.5-1.3,0.7-2.2,0.7c-1,0-1.9-0.4-2.5-1.1c-0.6-0.6-0.8-1.5-0.8-2.4c0-1,0.3-1.9,0.9-2.6c0.6-0.6,1.2-0.9,2-0.9
		c1,0,1.7,0.4,2.2,1.3c0.4,0.6,0.5,1.4,0.5,2.3V56.6z M25.1,56h4.1c0-0.8-0.2-1.4-0.5-1.9c-0.3-0.4-0.8-0.7-1.4-0.7
		c-0.6,0-1.1,0.2-1.4,0.7S25.1,55.2,25.1,56"/>
	<path class="st0" d="M36.5,62.5V59c-0.6,0.6-1.4,0.9-2.3,0.9c-0.9,0-1.6-0.4-2.2-1.1c-0.5-0.6-0.8-1.4-0.8-2.3c0-1.2,0.3-2.1,1-2.8
		c0.6-0.6,1.2-0.8,2.1-0.8c0.9,0,1.6,0.3,2.1,0.9l0.2-0.7h0.5v9.5H36.5z M36.5,58.2v-3.7c-0.2-0.3-0.5-0.6-0.8-0.8
		c-0.4-0.2-0.8-0.3-1.2-0.3c-0.7,0-1.3,0.3-1.7,0.8c-0.4,0.5-0.7,1.2-0.7,2.1c0,1,0.3,1.7,0.8,2.2c0.4,0.4,0.9,0.6,1.5,0.6
		c0.5,0,0.9-0.1,1.3-0.3C36,58.7,36.3,58.5,36.5,58.2"/>
	<path class="st0" d="M44.2,59.7h-0.5l-0.1-0.8c-0.7,0.6-1.4,0.9-2.3,0.9c-0.7,0-1.2-0.2-1.6-0.6c-0.4-0.4-0.6-0.9-0.6-1.5
		c0-1.5,1.1-2.3,3.2-2.3h1.3v-0.1c0-1.3-0.6-2-1.9-2c-0.6,0-1.3,0.2-1.9,0.7l-0.3-0.4c0.6-0.6,1.4-0.9,2.3-0.9
		c0.8,0,1.4,0.2,1.8,0.7c0.4,0.5,0.6,1.2,0.6,2V59.7z M43.5,56.1h-1.1c-0.9,0-1.6,0.1-2,0.4c-0.4,0.2-0.6,0.7-0.6,1.2
		c0,0.5,0.1,0.8,0.4,1.1c0.3,0.3,0.7,0.4,1.2,0.4c0.4,0,0.8-0.1,1.2-0.3c0.4-0.2,0.7-0.4,0.9-0.7V56.1z"/>
	<path class="st0" d="M46.5,50.5l0.7-0.4v3.5c0.7-0.6,1.4-0.9,2.2-0.9c0.8,0,1.5,0.3,1.9,0.8c0.4,0.5,0.6,1.2,0.6,2.1v4h-0.7v-3.9
		c0-1.5-0.7-2.3-2.1-2.3c-0.4,0-0.8,0.1-1.1,0.3c-0.4,0.2-0.7,0.4-0.9,0.7v5.2h-0.7V50.5z"/>
	<path class="st0" d="M62.1,59.7h-0.5l-0.1-0.8c-0.7,0.6-1.4,0.9-2.3,0.9c-0.7,0-1.2-0.2-1.6-0.6c-0.4-0.4-0.6-0.9-0.6-1.5
		c0-1.5,1.1-2.3,3.2-2.3h1.3v-0.1c0-1.3-0.6-2-1.9-2c-0.6,0-1.3,0.2-1.9,0.7l-0.3-0.4c0.6-0.6,1.4-0.9,2.3-0.9
		c0.8,0,1.4,0.2,1.8,0.7c0.4,0.5,0.6,1.2,0.6,2V59.7z M61.4,56.1h-1.1c-0.9,0-1.6,0.1-2,0.4c-0.4,0.2-0.6,0.7-0.6,1.2
		c0,0.5,0.1,0.8,0.4,1.1c0.3,0.3,0.7,0.4,1.2,0.4c0.4,0,0.8-0.1,1.2-0.3c0.4-0.2,0.7-0.4,0.9-0.7V56.1z"/>
	<polygon class="st0" points="65.1,50.2 65.1,59.7 64.4,59.7 64.4,50.5 	"/>
	<path class="st0" d="M68,53.7c0.7-0.6,1.3-0.9,2-0.9c0.7,0,1.2,0.2,1.5,0.6l-0.6,0.5c-0.3-0.3-0.7-0.4-1.1-0.4
		c-0.6,0-1.2,0.3-1.7,1v5.2h-0.7V53h0.6L68,53.7z"/>
	<path class="st0" d="M77.7,56.6h-4.8c0,0.8,0.3,1.5,0.9,2c0.5,0.4,1.2,0.7,1.9,0.7c0.7,0,1.2-0.2,1.7-0.5l0.3,0.5
		c-0.6,0.5-1.3,0.7-2.2,0.7c-1,0-1.9-0.4-2.5-1.1c-0.6-0.6-0.8-1.5-0.8-2.4c0-1,0.3-1.9,0.9-2.6c0.6-0.6,1.2-0.9,2-0.9
		c1,0,1.7,0.4,2.2,1.3c0.4,0.6,0.5,1.4,0.5,2.3V56.6z M72.8,56h4.1c0-0.8-0.2-1.4-0.5-1.9c-0.3-0.4-0.8-0.7-1.4-0.7
		c-0.6,0-1.1,0.2-1.4,0.7C73.1,54.6,72.9,55.2,72.8,56"/>
	<path class="st0" d="M84.6,53l-2.9,7.7c-0.4,1.2-1,1.8-1.8,1.8c-0.5,0-0.9-0.1-1.3-0.4l0.3-0.4c0.4,0.1,0.7,0.2,0.9,0.2
		c0.3,0,0.6-0.1,0.8-0.4c0.2-0.2,0.4-0.7,0.7-1.4l0.2-0.4h-0.2L78.6,53h0.8l2.3,6l2.2-6H84.6z"/>
	<path class="st0" d="M90.6,59.7h-0.5l-0.1-0.8c-0.7,0.6-1.4,0.9-2.3,0.9c-0.7,0-1.2-0.2-1.6-0.6c-0.4-0.4-0.6-0.9-0.6-1.5
		c0-1.5,1.1-2.3,3.2-2.3h1.3v-0.1c0-1.3-0.6-2-1.9-2c-0.6,0-1.3,0.2-1.9,0.7l-0.3-0.4c0.6-0.6,1.4-0.9,2.3-0.9
		c0.8,0,1.4,0.2,1.8,0.7c0.4,0.5,0.6,1.2,0.6,2V59.7z M89.9,56.1h-1.1c-0.9,0-1.6,0.1-2,0.4c-0.4,0.2-0.6,0.7-0.6,1.2
		c0,0.5,0.1,0.8,0.4,1.1c0.3,0.3,0.7,0.4,1.2,0.4c0.4,0,0.8-0.1,1.2-0.3c0.4-0.2,0.7-0.4,0.9-0.7V56.1z"/>
	<path class="st0" d="M97.7,59.7L97.5,59c-0.5,0.6-1.2,0.9-2.1,0.9c-0.9,0-1.7-0.4-2.3-1.1c-0.5-0.6-0.7-1.4-0.7-2.4
		c0-1.1,0.3-2,1-2.7c0.6-0.6,1.3-0.9,2.1-0.9c0.8,0,1.5,0.3,1.9,0.9v-3.1l0.7-0.4v9.5H97.7z M97.5,58.2v-3.7
		c-0.2-0.3-0.4-0.6-0.8-0.8c-0.3-0.2-0.7-0.3-1.1-0.3c-0.7,0-1.3,0.3-1.8,0.8c-0.4,0.5-0.6,1.2-0.6,2c0,1,0.3,1.7,0.8,2.2
		c0.4,0.4,1,0.7,1.6,0.7C96.5,59.2,97.1,58.9,97.5,58.2"/>
	<path class="st0" d="M105.2,59.7h-0.5l-0.1-0.8c-0.7,0.6-1.4,0.9-2.3,0.9c-0.7,0-1.2-0.2-1.6-0.6c-0.4-0.4-0.6-0.9-0.6-1.5
		c0-1.5,1.1-2.3,3.2-2.3h1.3v-0.1c0-1.3-0.6-2-1.9-2c-0.6,0-1.3,0.2-1.9,0.7l-0.3-0.4c0.6-0.6,1.4-0.9,2.3-0.9
		c0.8,0,1.4,0.2,1.8,0.7c0.4,0.5,0.6,1.2,0.6,2V59.7z M104.5,56.1h-1.1c-0.9,0-1.6,0.1-2,0.4c-0.4,0.2-0.6,0.7-0.6,1.2
		c0,0.5,0.1,0.8,0.4,1.1c0.3,0.3,0.7,0.4,1.2,0.4c0.4,0,0.8-0.1,1.2-0.3c0.4-0.2,0.7-0.4,0.9-0.7V56.1z"/>
	<path class="st0" d="M107.5,50.5l0.7-0.4v3.5c0.7-0.6,1.4-0.9,2.2-0.9c0.8,0,1.5,0.3,1.9,0.8c0.4,0.5,0.6,1.2,0.6,2.1v4h-0.7v-3.9
		c0-1.5-0.7-2.3-2.1-2.3c-0.4,0-0.8,0.1-1.1,0.3c-0.4,0.2-0.7,0.4-0.9,0.7v5.2h-0.7V50.5z"/>
</g>
</svg>
